<?xml version="1.0" encoding="UTF-8" standalone="no"?>
<!-- Generator: Adobe Illustrator 24.1.2, SVG Export Plug-In . SVG Version: 6.00 Build 0)  -->

<svg
   version="1.1"
   id="Layer_1"
   x="0px"
   y="0px"
   viewBox="0 0 392 306.7"
   style="enable-background:new 0 0 392 306.7;"
   xml:space="preserve"
   sodipodi:docname="logo.svg"
   inkscape:version="1.1.1 (3bf5ae0d25, 2021-09-20)"
   xmlns:inkscape="http://www.inkscape.org/namespaces/inkscape"
   xmlns:sodipodi="http://sodipodi.sourceforge.net/DTD/sodipodi-0.dtd"
   xmlns="http://www.w3.org/2000/svg"
   xmlns:svg="http://www.w3.org/2000/svg"><defs
   id="defs33" /><sodipodi:namedview
   id="namedview31"
   pagecolor="#ffffff"
   bordercolor="#666666"
   borderopacity="1.0"
   inkscape:pageshadow="2"
   inkscape:pageopacity="0.0"
   inkscape:pagecheckerboard="0"
   showgrid="false"
   inkscape:zoom="0.95423339"
   inkscape:cx="202.78058"
   inkscape:cy="236.31535"
   inkscape:window-width="1920"
   inkscape:window-height="1017"
   inkscape:window-x="-8"
   inkscape:window-y="-8"
   inkscape:window-maximized="1"
   inkscape:current-layer="g28" />
<style
   type="text/css"
   id="style2">
	.st0{fill:none;stroke:#C8133D;stroke-width:15;stroke-miterlimit:10;}
	.st1{fill:none;stroke:#C8133D;stroke-width:14.9999;stroke-miterlimit:9.9999;}
</style>
<path
   d="M-351.5,186.3"
   id="path4" />
<g
   id="g28">
	<path
   style="color:#000000;fill:#c8133d;stroke-miterlimit:10;-inkscape-stroke:none"
   d="m 216.10352,142.68945 -5.30665,5.30664 -25.40429,25.4043 60.11328,60.11328 -9.40625,9.45313 -19.98633,-20.08594 -30.72656,30.72656 50.7207,50.5918 70.69531,-70.69531 z m -0.008,21.22071 69.50196,69.58593 L 236.09375,283 l -29.48242,-29.40625 9.47461,-9.47461 20.01367,20.11328 30.59375,-30.74609 -60.08789,-60.08594 z"
   id="polygon6" />
	<path
   style="color:#000000;fill:#c8133d;stroke-miterlimit:10;-inkscape-stroke:none"
   d="m 316.19922,82.693359 -90.69336,90.693361 5.27734,5.30273 25.31641,25.44336 20.01367,-20.11328 40.08594,40.08789 70.70703,-70.70703 z m 0,21.212891 49.49414,49.49414 -49.49414,49.49219 -40.11328,-40.11328 -19.98633,20.08593 -9.40625,-9.45312 z m 0.0879,18.77344 -30.58008,30.73437 30.60547,30.60547 30.58008,-30.73242 -5.28906,-5.29102 z m 0.0254,21.24023 9.39453,9.39453 -9.41992,9.4668 -9.39453,-9.39453 z"
   id="path8" />
	
		<path
   style="color:#000000;fill:#c8133d;stroke-miterlimit:9.9999;-inkscape-stroke:none"
   d="m 214.40039,63.199219 v 7.5 92.500001 h 43.29883 V 63.199219 Z m 15,15 h 13.29883 v 70.000001 h -13.29883 z"
   id="rect10"
   transform="matrix(0.7071 -0.7071 0.7071 0.7071 -10.9263 200.1048)" />
	
		<path
   style="color:#000000;fill:#c8133d;stroke-miterlimit:9.9999;-inkscape-stroke:none"
   d="m 146,131.69922 v 7.5 V 175 h 100 v -43.30078 z m 15,15 h 70 V 160 h -70 z"
   id="rect12"
   transform="matrix(0.7071 -0.7071 0.7071 0.7071 -51.0132 183.5087)" />
	<path
   style="color:#000000;fill:#c8133d;stroke-miterlimit:10;-inkscape-stroke:none"
   d="m 155.89648,2.3886719 -5.30468,5.3125 -65.396488,65.5058591 90.808598,90.695309 30.60351,-30.60156 -60.11328,-60.11328 9.41992,-9.46875 20.09961,20.101562 30.58008,-30.734375 z m 0.008,21.2207031 29.50195,29.503906 -9.41992,9.466797 -20.09961,-20.099609 -30.58008,30.732422 60.08789,60.087889 -9.39844,9.39649 -69.58984,-69.505864 z"
   id="polygon14" />
	<path
   style="color:#000000;fill:#c8133d;stroke-miterlimit:10;-inkscape-stroke:none"
   d="M 135.91406,182.7793 85.193359,233.5 l 70.703121,70.70312 90.8125,-90.69921 -30.71289,-30.71485 -5.30468,5.3125 -54.78321,54.87305 -9.41406,-9.46094 20,-20 z m 80.0918,21.23242 9.48437,9.48437 -69.58789,69.5 -49.49609,-49.49609 29.48047,-29.48047 9.41992,9.4668 -20,20 30.58398,30.73828 z"
   id="polygon16" />
	
		<path
   style="color:#000000;fill:#c8133d;stroke-miterlimit:9.9999;-inkscape-stroke:none"
   d="m 134.19922,143.40039 v 7.5 92.5 H 177.5 v -100 z m 15,15 H 162.5 v 70 h -13.30078 z"
   id="rect18"
   transform="matrix(0.7071 -0.7071 0.7071 0.7071 -91.1019 166.8982)" />
	<path
   style="color:#000000;fill:#c8133d;stroke-miterlimit:10;-inkscape-stroke:none"
   d="m 236.10352,2.3886719 -5.30665,5.3085937 -85.51757,85.5156254 30.73437,30.580079 60.07227,-60.07422 9.41992,9.46875 -20.01172,20.011719 30.59961,30.601561 50.71484,-50.589843 z m -0.008,21.2207031 49.4961,49.580078 -29.48438,29.410157 -9.40039,-9.400391 19.98633,-19.986328 -30.58008,-30.732422 -60.12695,60.126951 -9.4668,-9.41992 z"
   id="polygon20" />
	<path
   style="color:#000000;fill:#c8133d;stroke-miterlimit:10;-inkscape-stroke:none"
   d="m 75.699219,82.59375 -70.7050784,70.70703 70.7050784,70.70508 90.806641,-90.80664 -30.60547,-30.60547 -20.09961,20.09961 z m 0.002,21.21289 40.099608,40.09961 5.30274,-5.30273 14.79687,-14.79688 9.39258,9.39258 -69.593751,69.59375 -49.492188,-49.49219 z m 0.09961,18.75977 -30.580078,30.73437 30.580078,30.73242 30.580079,-30.73242 -5.26367,-5.29101 z m 0,21.26757 9.419922,9.4668 -9.419922,9.4668 -9.419922,-9.4668 z"
   id="path22" />
	<path
   style="color:#000000;fill:#c8133d;stroke-miterlimit:10;-inkscape-stroke:none"
   d="m 110.49609,127.99609 -19.999996,20 10.607426,10.60743 20,-20 z"
   id="line24" />
	<path
   style="color:#000000;fill:#c8133d;stroke-miterlimit:10;-inkscape-stroke:none"
   d="m 290.88281,148.00977 -20,20.0996 10.63281,10.58008 20,-20.09961 z"
   id="line26" />
</g>
</svg>
