<svg width="24" height="14" viewBox="0 0 24 14" fill="none" xmlns="http://www.w3.org/2000/svg">
<path d="M21.9942 2.44186H1.29683C0.587896 2.44186 0 1.88837 0 1.22093C0 0.553489 0.587896 0 1.29683 0H21.9942C22.7032 0 23.2911 0.553489 23.2911 1.22093C23.2911 1.88837 22.7032 2.44186 21.9942 2.44186Z" fill="white"/>
<path d="M21.0605 8.22091H1.29683C0.587896 8.22091 0 7.66742 0 6.99998C0 6.33254 0.587896 5.77905 1.29683 5.77905H21.0605C21.7695 5.77905 22.3573 6.33254 22.3573 6.99998C22.3573 7.66742 21.7867 8.22091 21.0605 8.22091Z" fill="white"/>
<path d="M12.7954 14H1.29683C0.587896 14 0 13.4465 0 12.7791C0 12.1117 0.587896 11.5582 1.29683 11.5582H12.7954C13.5043 11.5582 14.0922 12.1117 14.0922 12.7791C14.0922 13.4465 13.5043 14 12.7954 14Z" fill="white"/>
</svg>
