<?xml version="1.0" encoding="UTF-8" standalone="no"?>
<svg
   width="28"
   height="28"
   viewBox="0 0 28 28"
   fill="none"
   version="1.1"
   id="svg13"
   sodipodi:docname="language.svg"
   inkscape:version="1.1.1 (3bf5ae0d25, 2021-09-20)"
   xmlns:inkscape="http://www.inkscape.org/namespaces/inkscape"
   xmlns:sodipodi="http://sodipodi.sourceforge.net/DTD/sodipodi-0.dtd"
   xmlns="http://www.w3.org/2000/svg"
   xmlns:svg="http://www.w3.org/2000/svg">
  <sodipodi:namedview
     id="namedview15"
     pagecolor="#ffffff"
     bordercolor="#666666"
     borderopacity="1.0"
     inkscape:pageshadow="2"
     inkscape:pageopacity="0.0"
     inkscape:pagecheckerboard="0"
     showgrid="false"
     inkscape:zoom="29.714286"
     inkscape:cx="18.055288"
     inkscape:cy="32.661057"
     inkscape:window-width="1920"
     inkscape:window-height="1017"
     inkscape:window-x="-8"
     inkscape:window-y="-8"
     inkscape:window-maximized="1"
     inkscape:current-layer="g6" />
  <g
     clip-path="url(#clip0_315_254)"
     id="g6">
    <path
       d="M12.8 19.73C13.2506 19.7295 13.6878 19.5769 14.0408 19.2969C14.3938 19.0169 14.6419 18.6259 14.7449 18.1872C14.8479 17.7486 14.7998 17.288 14.6083 16.8801C14.4169 16.4722 14.0933 16.141 13.69 15.94C12.614 15.4192 11.6064 14.7676 10.69 14C12.0851 12.1872 13.2319 10.1963 14.1 8.07999C14.6304 8.06142 15.1318 7.8329 15.4937 7.4447C15.8557 7.0565 16.0486 6.54042 16.03 6.00999C16.0114 5.47955 15.7829 4.97822 15.3947 4.61628C15.0065 4.25433 14.4904 4.06142 13.96 4.07999H10V2.07999C10 1.54955 9.78929 1.04085 9.41421 0.665773C9.03914 0.290701 8.53043 0.0799866 8 0.0799866C7.46957 0.0799866 6.96086 0.290701 6.58579 0.665773C6.21071 1.04085 6 1.54955 6 2.07999V4.07999H2C1.46957 4.07999 0.96086 4.2907 0.585787 4.66577C0.210714 5.04085 0 5.54955 0 6.07999C0 6.61042 0.210714 7.11913 0.585787 7.4942C0.96086 7.86927 1.46957 8.07999 2 8.07999H9.74C9.23742 9.09742 8.65563 10.0738 8 11C7.62 10.47 7.25 9.91999 6.91 9.32999C6.64478 8.86984 6.20764 8.53389 5.69472 8.39605C5.18181 8.25821 4.63515 8.32977 4.175 8.59499C3.71485 8.8602 3.3789 9.29735 3.24106 9.81026C3.10322 10.3232 3.17478 10.8698 3.44 11.33C3.98411 12.2564 4.58526 13.1481 5.24 14C4.34638 14.7613 3.36229 15.4095 2.31 15.93C1.90673 16.131 1.58315 16.4622 1.39168 16.8701C1.20022 17.278 1.15209 17.7386 1.25509 18.1772C1.3581 18.6159 1.60621 19.0069 1.95921 19.2869C2.31221 19.5669 2.74942 19.7195 3.2 19.72C3.50929 19.7231 3.81471 19.651 4.09 19.51C5.49693 18.8062 6.81043 17.9294 8 16.9C9.19043 17.9358 10.5076 18.8162 11.92 19.52C12.1923 19.6595 12.4941 19.7315 12.8 19.73V19.73Z"
       fill="white"
       id="path2"
       style="fill:#ffffff" />
    <path
       d="M27.84 25.12L26.84 22.8L26.78 22.66L21.84 11.12C21.6863 10.7592 21.4299 10.4516 21.1028 10.2354C20.7756 10.0191 20.3921 9.90384 20 9.90384C19.6078 9.90384 19.2243 10.0191 18.8972 10.2354C18.57 10.4516 18.3137 10.7592 18.16 11.12L13.16 22.72L12.16 25.1C11.9505 25.588 11.9434 26.1392 12.1403 26.6325C12.3372 27.1257 12.722 27.5205 13.21 27.73C13.698 27.9395 14.2492 27.9466 14.7424 27.7497C15.2357 27.5528 15.6305 27.168 15.84 26.68L16.35 25.49H23.65L24.16 26.68C24.3116 27.0434 24.567 27.3539 24.8943 27.5727C25.2217 27.7915 25.6063 27.9089 26 27.91C26.3314 27.9104 26.6577 27.8285 26.9496 27.6716C27.2415 27.5147 27.4898 27.2877 27.6722 27.0111C27.8547 26.7345 27.9655 26.4168 27.9948 26.0867C28.0241 25.7566 27.9709 25.4244 27.84 25.12ZM18.06 21.51L20 17L21.94 21.52L18.06 21.51Z"
       fill="white"
       id="path4"
       style="fill:#ffffff" />
  </g>
  <defs
     id="defs11">
    <clipPath
       id="clip0_315_254">
      <rect
         width="28"
         height="28"
         fill="white"
         id="rect8" />
    </clipPath>
  </defs>
</svg>
