<?xml version="1.0" encoding="UTF-8" standalone="no"?>
<svg
   width="40"
   height="20"
   viewBox="0 0 40 20"
   fill="none"
   version="1.1"
   id="svg6"
   sodipodi:docname="toggleBlack.svg"
   inkscape:version="1.1.1 (3bf5ae0d25, 2021-09-20)"
   xmlns:inkscape="http://www.inkscape.org/namespaces/inkscape"
   xmlns:sodipodi="http://sodipodi.sourceforge.net/DTD/sodipodi-0.dtd"
   xmlns="http://www.w3.org/2000/svg"
   xmlns:svg="http://www.w3.org/2000/svg">
  <defs
     id="defs10" />
  <sodipodi:namedview
     id="namedview8"
     pagecolor="#ffffff"
     bordercolor="#666666"
     borderopacity="1.0"
     inkscape:pageshadow="2"
     inkscape:pageopacity="0.0"
     inkscape:pagecheckerboard="0"
     showgrid="false"
     inkscape:zoom="26.45"
     inkscape:cx="19.981096"
     inkscape:cy="10"
     inkscape:window-width="1920"
     inkscape:window-height="1017"
     inkscape:window-x="-8"
     inkscape:window-y="-8"
     inkscape:window-maximized="1"
     inkscape:current-layer="svg6" />
  <g
     id="g971"
     transform="matrix(-1,0,0,1,40.002828,0)">
    <path
       d="M 29.9509,19.8884 H 10.0492 c -5.49644,0 -9.9508724,-4.4265 -9.9508724,-9.88841 0,-5.4619 4.4544324,-9.888357 9.9508724,-9.888357 h 19.9045 c 5.4964,0 9.9508,4.426457 9.9508,9.888357 0,5.46191 -4.4572,9.88841 -9.9536,9.88841 z"
       fill="white"
       id="path2"
       style="fill:#000000" />
    <path
       d="m 9.93116,16.1317 c 3.40784,0 6.17044,-2.7453 6.17044,-6.13171 0,-3.38646 -2.7626,-6.13173 -6.17044,-6.13173 -3.40786,0 -6.17048,2.74527 -6.17048,6.13173 0,3.38641 2.76262,6.13171 6.17048,6.13171 z"
       fill="black"
       id="path4"
       style="fill:#ffffff" />
  </g>
</svg>
